<svg width="800" height="578" viewBox="0 0 800 578" fill="none" xmlns="http://www.w3.org/2000/svg">
<path d="M360.069 481.333C363.147 481.338 366.193 481.948 369.034 483.13C371.876 484.312 374.457 486.041 376.63 488.22C378.802 490.399 380.525 492.985 381.698 495.83C382.872 498.675 383.474 501.723 383.469 504.8C383.465 507.877 382.855 510.924 381.673 513.765C380.491 516.606 378.762 519.187 376.582 521.36C374.403 523.533 371.818 525.255 368.973 526.429C366.128 527.603 363.08 528.204 360.003 528.2C353.788 528.191 347.831 525.714 343.443 521.313C339.054 516.912 336.594 510.948 336.603 504.733C336.612 498.518 339.089 492.562 343.49 488.173C347.891 483.785 353.855 481.325 360.069 481.333ZM727.536 336.433C724.459 336.431 721.412 335.823 718.57 334.643C715.728 333.464 713.146 331.736 710.971 329.558C708.797 327.381 707.072 324.796 705.897 321.952C704.721 319.108 704.117 316.061 704.119 312.983C704.122 309.906 704.73 306.859 705.91 304.017C707.089 301.175 708.817 298.593 710.995 296.418C713.172 294.244 715.757 292.52 718.601 291.344C721.445 290.168 724.492 289.565 727.569 289.567C733.784 289.571 739.743 292.044 744.134 296.442C748.526 300.84 750.99 306.802 750.986 313.017C750.982 319.232 748.509 325.19 744.111 329.582C739.713 333.973 733.751 336.438 727.536 336.433ZM727.536 240.567C708.322 240.584 689.9 248.225 676.314 261.811C662.728 275.397 655.087 293.819 655.069 313.033C655.069 320.8 656.369 328.533 658.903 336.067L419.536 463.5C412.899 453.863 404.018 445.984 393.658 440.543C383.298 435.102 371.771 432.262 360.069 432.267C332.436 432.267 307.269 448.1 295.069 472.8L80.0361 359.4C57.3028 347.467 40.3028 310.067 42.1028 276C43.0361 258.233 49.1695 244.433 58.5361 239.1C64.4695 235.767 71.6028 236.033 79.2028 240L80.6028 240.767C137.603 270.767 324.069 369 331.936 372.633C344.036 378.267 350.769 380.533 371.436 370.733L756.903 170.267C762.569 168.133 769.169 162.7 769.169 154.467C769.169 143.067 757.369 138.567 757.336 138.567C735.403 128.067 701.703 112.3 668.836 96.9C598.569 64 518.936 26.7334 483.969 8.40004C453.769 -7.39996 429.469 5.93337 425.136 8.60004L416.736 12.7667C259.336 90.6 48.6695 194.933 36.6695 202.233C15.2361 215.3 1.93614 241.333 0.202805 273.633C-2.46386 324.867 23.6361 378.3 61.0028 397.867L288.403 515.133C290.908 532.359 299.527 548.109 312.685 559.504C325.843 570.9 342.663 577.181 360.069 577.2C379.08 577.168 397.32 569.677 410.865 556.337C424.41 542.997 432.18 524.875 432.503 505.867L682.969 370.1C695.636 380.033 711.403 385.467 727.536 385.467C746.75 385.449 765.172 377.809 778.758 364.222C792.345 350.636 799.985 332.214 800.003 313C799.985 293.786 792.345 275.364 778.758 261.778C765.172 248.192 746.75 240.551 727.536 240.533" fill="#46F542"/>
</svg>
