<svg width="572" height="613" viewBox="0 0 572 613" fill="none" xmlns="http://www.w3.org/2000/svg">
<path fill-rule="evenodd" clip-rule="evenodd" d="M545.132 139.833L499.435 165.593C497.931 166.323 496.238 166.323 494.734 165.593L320.218 67.671C317.021 65.8441 313.26 68.0364 313.26 71.5075C313.26 72.969 314.2 74.6132 315.517 75.344L338.459 88.1322C339.964 89.0457 340.716 90.5072 340.716 91.9687V130.699C340.716 132.343 341.656 133.805 342.973 134.535L417.443 176.371C420.64 178.016 420.64 182.4 417.443 184.044L371.745 209.804C370.241 210.534 368.548 210.534 367.044 209.804L347.674 198.842C344.665 197.015 340.716 199.208 340.716 202.679V251.822C340.716 253.466 339.964 254.928 338.459 255.841L292.762 281.418C289.565 283.245 285.804 281.053 285.804 277.581V50.8635C285.804 49.2193 286.744 47.7578 288.06 47.0271L338.459 18.7101C339.964 17.9794 341.656 17.9794 342.973 18.7101L545.132 132.16C548.141 133.805 548.141 138.189 545.132 139.833ZM266.81 5.00842V56.3442C266.81 57.9884 265.87 59.4499 264.553 60.1807L89.8499 158.285C86.841 159.929 86.841 164.131 89.8499 165.958C91.3543 166.689 93.0468 166.689 94.5512 165.958L117.306 153.17C118.81 152.256 120.503 152.256 122.007 153.17L156.422 172.352C157.926 173.266 159.618 173.266 161.123 172.352L235.405 130.699C238.602 128.872 242.363 131.064 242.363 134.535V185.871C242.363 187.515 241.423 188.977 240.106 189.708L220.549 200.669C217.54 202.313 217.54 206.698 220.549 208.342L264.553 233.005C265.87 233.736 266.81 235.38 266.81 236.842V288.177C266.81 291.649 263.049 293.841 259.852 292.197L57.8804 178.746C56.3759 178.016 55.4357 176.554 55.4357 174.91V118.459C55.4357 116.815 56.3759 115.353 57.8804 114.44L259.852 1.17194C263.049 -0.47227 266.81 1.53732 266.81 5.00842ZM0.523438 175.641C0.523438 172.169 4.47261 170.16 7.48149 171.804L53.179 197.563C54.6835 198.294 55.4357 199.756 55.4357 201.4V397.243C55.4357 400.714 59.3848 402.724 62.3937 401.08C63.8982 400.349 64.6504 398.887 64.6504 397.243V371.484C64.6504 370.022 65.5907 368.561 67.0951 367.647L101.509 348.282C102.826 347.552 103.766 346.09 103.766 344.446V260.957C103.766 257.486 107.527 255.476 110.724 257.12L156.422 282.879C157.926 283.61 158.678 285.072 158.678 286.716V308.456C158.678 311.927 162.627 314.119 165.636 312.292L209.453 287.812C210.958 286.899 212.65 286.899 214.155 287.812L259.852 313.389C263.049 315.216 263.049 319.417 259.852 321.062L57.8804 434.512C56.3759 435.243 54.6835 435.243 53.179 434.512L2.7801 406.195C1.46372 405.464 0.523438 404.003 0.523438 402.358V175.641ZM26.4751 473.425L72.1726 447.666C73.6771 446.935 75.3696 446.935 76.874 447.666L251.39 545.587C254.587 547.414 258.348 545.222 258.348 541.751C258.348 540.107 257.407 538.645 256.091 537.914L233.148 525.126C231.644 524.213 230.892 522.751 230.892 521.289V482.559C230.892 480.915 229.951 479.454 228.447 478.723L154.165 436.887C150.968 435.243 150.968 430.858 154.165 429.214L199.862 403.455C201.367 402.724 203.059 402.724 204.564 403.455L223.933 414.416C226.942 416.243 230.892 414.051 230.892 410.58V361.253C230.892 359.792 231.644 358.33 233.148 357.417L278.846 331.84C282.043 330.013 285.804 332.206 285.804 335.677V562.395C285.804 563.856 284.863 565.318 283.547 566.231L233.148 594.548C231.644 595.279 229.951 595.279 228.447 594.548L26.4751 481.098C23.4662 479.454 23.4662 475.069 26.4751 473.425ZM304.797 608.25V556.914C304.797 555.27 305.738 553.808 307.054 552.895L481.758 454.973C484.767 453.329 484.767 448.944 481.758 447.3C480.253 446.569 478.561 446.569 477.056 447.3L454.302 460.088C452.797 461.002 451.105 461.002 449.6 460.088L415.186 440.723C413.682 439.993 411.989 439.993 410.485 440.723L336.203 482.559C333.006 484.203 329.245 482.194 329.245 478.723V427.387C329.245 425.743 330.185 424.281 331.501 423.551L351.059 412.589C354.068 410.762 354.068 406.56 351.059 404.916L307.054 380.253C305.738 379.34 304.797 377.878 304.797 376.417V324.898C304.797 321.61 308.559 319.417 311.755 321.062L513.727 434.512C515.232 435.243 516.172 436.704 516.172 438.348V494.799C516.172 496.444 515.232 497.905 513.727 498.636L311.755 612.086C308.559 613.73 304.797 611.538 304.797 608.25ZM571.084 437.618C571.084 440.906 567.135 443.098 564.126 441.454L518.429 415.695C516.924 414.964 516.172 413.503 516.172 411.858L515.984 216.015C515.984 212.544 512.223 210.352 509.214 212.179C507.709 212.909 506.957 214.371 506.957 216.015V241.592C506.957 243.236 506.017 244.697 504.512 245.611L470.098 264.793C468.782 265.707 467.842 267.168 467.842 268.812V352.302C467.842 355.773 464.081 357.782 460.884 356.138L415.186 330.379C413.682 329.648 412.929 328.186 412.929 326.542V304.802C412.929 301.331 408.98 299.139 405.971 300.783L362.154 325.446C360.65 326.36 358.957 326.36 357.453 325.446L311.755 299.87C308.559 298.043 308.559 293.841 311.755 292.014L513.727 178.746C515.232 178.016 516.924 178.016 518.429 178.746L568.828 207.063C570.144 207.794 571.084 209.255 571.084 210.9V437.618Z" fill="url(#paint0_linear_3278_10058)"/>
<defs>
<linearGradient id="paint0_linear_3278_10058" x1="135" y1="-140" x2="423.5" y2="613" gradientUnits="userSpaceOnUse">
<stop stop-color="#1AE5AE"/>
<stop offset="1" stop-color="#02FE5A"/>
</linearGradient>
</defs>
</svg>
